<svg id="epiEM1seR6J1" xmlns="http://www.w3.org/2000/svg" xmlns:xlink="http://www.w3.org/1999/xlink" viewBox="0 0 256 256" shape-rendering="geometricPrecision" text-rendering="geometricPrecision" project-id="2f2a7c09ad1f4f7b8a3efd5446c5976a" export-id="cec1f19131924bde955ae14ab49765db" cached="false"><rect width="200" height="200" rx="50" ry="50" transform="matrix(0.682027 0.682027 -0.682027 0.682027 127.999995 2.231904)" fill="#3471ff" stroke-width="0"/><rect width="200" height="200" rx="50" ry="50" transform="matrix(0.682027 0.682027 -0.682027 0.682027 127.999995 -8.160734)" fill="#5b8cff" stroke-width="0"/><rect width="200" height="200" rx="50" ry="50" transform="matrix(0.682027 0.682027 -0.682027 0.682027 127.999995 -19.405424)" fill="#79a1ff" stroke-width="0"/><path d="M91.25129,75.60016c0-7.7833,7.02079-14.0929,15.68137-14.0929h42.13467c8.66058,0,15.68137,6.30961,15.68137,14.0929v36.94821h-9.3171c0-18.04233,0-37.30643,0-37.30663c0-2.48996-2.24605-4.50848-5.01668-4.50848h-44.82983c-2.77064,0-5.01668,2.01851-5.01668,4.50848c0,.00019,0,19.26429,0,37.30663h-9.31712v-36.94821Zm73.49741,70.64453l-9.3171-7c0-2.53425,0-6.08392,0-10.22579h9.3171v17.22579Zm-64.18029-7l-9.31712,7v-17.22579h9.31712c0,4.14187,0,7.69153,0,10.22579Z" transform="translate(0 -16)" fill="#fff" stroke-width="0"/><path d="M82.55445,199.37385c-5.70206,0-10.3245-4.5825-10.3245-10.2353v-62.70636c0-5.6528,4.62244-10.2353,10.3245-10.2353h90.8911c5.70206,0,10.3245,4.5825,10.3245,10.2353v62.70636c0,5.6528-4.62244,10.2353-10.3245,10.2353h-90.8911Zm87.87793-9.16358c1.87414,0,3.39342-1.42912,3.39342-3.19202v-58.46575c0-1.76291-1.51929-3.19202-3.39342-3.19202h-84.86477c-1.87414,0-3.39342,1.42912-3.39342,3.19202v58.46575c0,1.76291,1.51929,3.19202,3.39342,3.19202h69.89529v-41.668999l9.2858,6.920189v34.74881h5.68368Z" transform="translate(0 -16)" fill="#fff" stroke-width="0"/></svg>
